<svg width="50" height="50" viewBox="0 0 50 50" fill="none" xmlns="http://www.w3.org/2000/svg">
<path d="M3.75 18.9516H2.41935C1.08871 18.9516 0 20.121 0 21.4516V28.7097C0 30.0806 1.08871 31.0484 2.41935 31.0484H3.79032C5.96774 31.0484 7.29839 34.2339 5.72581 35.8065L4.83871 36.6935C3.87097 37.621 3.87097 39.1935 4.83871 40.121L9.91936 45.2419C10.8468 46.1694 12.379 46.1694 13.3468 45.2419L14.8387 43.75C16.371 42.2177 18.9516 43.3065 18.9516 45.4839V47.6613C18.9516 48.9919 20.0403 50 21.371 50H28.629C29.9597 50 31.0484 49.0323 31.0484 47.6613V45.4839C31.0484 43.3468 33.6694 42.2581 35.1613 43.7903L36.6532 45.2823C37.5806 46.2097 39.1129 46.2097 40.0806 45.2823L45.1613 40.2016C46.129 39.2339 46.0887 37.7016 45.1613 36.7742L44.2742 35.8468C42.7016 34.3145 44.0323 31.0887 46.2097 31.0887H47.5806C48.9113 31.0887 50 30.1214 50 28.75V21.4919C50 20.1613 48.9113 18.9919 47.5806 18.9919H46.25C44.0726 18.9919 42.7016 15.7258 44.2339 14.1935L45.2012 13.2661C46.129 12.3387 46.129 10.8065 45.2012 9.87903L40.121 4.79839C39.1532 3.83064 37.621 3.87097 36.6935 4.79839L35.7258 5.64516C34.1935 7.21774 31.0484 5.92742 31.0484 3.70968V2.5C31.0484 1.16935 29.9597 0 28.629 0H21.371C20.0403 0 18.9516 1.16935 18.9516 2.5V3.70968C18.9516 5.92742 15.8065 7.21774 14.2742 5.64516L13.3468 4.71774C12.4194 3.75 10.8468 3.75 9.91936 4.71774L4.79839 9.83871C3.87097 10.7661 3.87097 12.2984 4.79839 13.2661L5.76613 14.1532C7.29839 15.6855 5.92742 18.9516 3.75 18.9516ZM25.0806 15.4032C30.4435 15.4032 34.7581 19.7177 34.7581 25.0806C34.7581 30.4435 30.4435 34.7581 25.0806 34.7581C19.7177 34.7581 15.4032 30.4435 15.4032 25.0806C15.4032 19.7177 19.7581 15.4032 25.0806 15.4032Z" fill="#F4D58D"/>
</svg>
