<svg width="90" height="75" viewBox="0 0 90 75" fill="none" xmlns="http://www.w3.org/2000/svg">
<rect x="8.5" y="0.5" width="74" height="74" rx="4.5" fill="#001427" stroke="#F4D58D"/>
<g filter="url(#filter0_d_432_140)">
<path d="M52.8457 43.0112C48.7612 36.5513 45.5142 29.6982 43.1216 22.4351C42.3354 20.5039 41.0708 19.564 39.3618 19.6152C37.6357 19.6836 36.354 20.6235 35.4995 22.4351L31.0562 33.8511C28.4414 30.4502 25.7925 27.0835 23.1094 23.7339C22.1182 22.6914 20.8877 22.3496 19.4351 22.7085C18.5635 22.8623 17.8115 23.2554 17.1792 23.8706C16.564 24.5029 16.2051 25.3574 16.1196 26.4512C15.7437 34.7056 15.9487 42.96 16.752 51.1973C16.8716 52.291 17.2646 53.231 17.9482 54C18.6318 54.769 19.5547 55.145 20.6997 55.145C21.7422 55.145 22.665 54.769 23.4683 54C24.2715 53.231 24.6646 52.3081 24.6646 51.1973C24.6475 51.0264 24.6475 50.8726 24.6304 50.7017C24.6133 50.394 24.5962 50.0693 24.5791 49.7446C24.562 49.437 24.5278 49.1465 24.4595 48.8901C24.1348 45.0449 23.9468 41.2168 23.8784 37.3887C25.519 39.5078 27.1597 41.644 28.7661 43.7974C29.9111 45.1987 31.2271 45.814 32.6968 45.6431C34.1494 45.4551 35.2603 44.5322 35.9951 42.8574C37.0889 40.0205 38.1997 37.2007 39.2935 34.3638C41.2246 38.7388 43.4805 42.96 46.0269 47.0103C47.001 48.3945 48.1973 49.0098 49.5986 48.8389C51 48.6851 52.0938 48.0527 52.897 46.9248C53.6831 45.814 53.666 44.5151 52.8457 43.0112ZM70.7388 47.9844C69.7476 47.9502 68.7734 47.9331 67.7822 47.8989C66.791 47.8818 65.8169 47.8477 64.8257 47.8306C65.4067 40.8579 66.1074 33.9023 66.9619 26.9639C67.0303 25.853 66.6372 24.9131 65.7656 24.1611C64.9111 23.3921 63.9883 22.999 62.9971 22.999C61.835 22.999 60.9121 23.3921 60.2456 24.1611C59.5791 24.9302 59.186 25.853 59.0493 26.9639C58.0581 35.1841 57.2378 43.4214 56.6226 51.6758C56.5713 52.8037 56.9644 53.7266 57.7676 54.4614C58.5708 55.1792 59.5107 55.5723 60.5703 55.6235L70.7388 55.8799C72.4307 55.8286 73.5757 55.1792 74.1396 53.9146C74.7036 52.667 74.7036 51.3853 74.1226 50.1035C73.5586 48.8218 72.4307 48.1211 70.7388 47.9844Z" fill="#F4D58D"/>
</g>
<path d="M50.8457 41.0112C46.7612 34.5513 43.5142 27.6982 41.1216 20.4351C40.3354 18.5039 39.0708 17.564 37.3618 17.6152C35.6357 17.6836 34.354 18.6235 33.4995 20.4351L29.0562 31.8511C26.4414 28.4502 23.7925 25.0835 21.1094 21.7339C20.1182 20.6914 18.8877 20.3496 17.4351 20.7085C16.5635 20.8623 15.8115 21.2554 15.1792 21.8706C14.564 22.5029 14.2051 23.3574 14.1196 24.4512C13.7437 32.7056 13.9487 40.96 14.752 49.1973C14.8716 50.291 15.2646 51.231 15.9482 52C16.6318 52.769 17.5547 53.145 18.6997 53.145C19.7422 53.145 20.665 52.769 21.4683 52C22.2715 51.231 22.6646 50.3081 22.6646 49.1973C22.6475 49.0264 22.6475 48.8726 22.6304 48.7017C22.6133 48.394 22.5962 48.0693 22.5791 47.7446C22.562 47.437 22.5278 47.1465 22.4595 46.8901C22.1348 43.0449 21.9468 39.2168 21.8784 35.3887C23.519 37.5078 25.1597 39.644 26.7661 41.7974C27.9111 43.1987 29.2271 43.814 30.6968 43.6431C32.1494 43.4551 33.2603 42.5322 33.9951 40.8574C35.0889 38.0205 36.1997 35.2007 37.2935 32.3638C39.2246 36.7388 41.4805 40.96 44.0269 45.0103C45.001 46.3945 46.1973 47.0098 47.5986 46.8389C49 46.6851 50.0938 46.0527 50.897 44.9248C51.6831 43.814 51.666 42.5151 50.8457 41.0112ZM68.7388 45.9844C67.7476 45.9502 66.7734 45.9331 65.7822 45.8989C64.791 45.8818 63.8169 45.8477 62.8257 45.8306C63.4067 38.8579 64.1074 31.9023 64.9619 24.9639C65.0303 23.853 64.6372 22.9131 63.7656 22.1611C62.9111 21.3921 61.9883 20.999 60.9971 20.999C59.835 20.999 58.9121 21.3921 58.2456 22.1611C57.5791 22.9302 57.186 23.853 57.0493 24.9639C56.0581 33.1841 55.2378 41.4214 54.6226 49.6758C54.5713 50.8037 54.9644 51.7266 55.7676 52.4614C56.5708 53.1792 57.5107 53.5723 58.5703 53.6235L68.7388 53.8799C70.4307 53.8286 71.5757 53.1792 72.1396 51.9146C72.7036 50.667 72.7036 49.3853 72.1226 48.1035C71.5586 46.8218 70.4307 46.1211 68.7388 45.9844Z" fill="#F4D58D" fill-opacity="0.1"/>
<defs>
<filter id="filter0_d_432_140" x="0.743652" y="4.56396" width="88.96" height="66.3159" filterUnits="userSpaceOnUse" color-interpolation-filters="sRGB">
<feFlood flood-opacity="0" result="BackgroundImageFix"/>
<feColorMatrix in="SourceAlpha" type="matrix" values="0 0 0 0 0 0 0 0 0 0 0 0 0 0 0 0 0 0 127 0" result="hardAlpha"/>
<feOffset/>
<feGaussianBlur stdDeviation="7.5"/>
<feComposite in2="hardAlpha" operator="out"/>
<feColorMatrix type="matrix" values="0 0 0 0 0.956863 0 0 0 0 0.835294 0 0 0 0 0.552941 0 0 0 0.25 0"/>
<feBlend mode="normal" in2="BackgroundImageFix" result="effect1_dropShadow_432_140"/>
<feBlend mode="normal" in="SourceGraphic" in2="effect1_dropShadow_432_140" result="shape"/>
</filter>
</defs>
</svg>
