<svg width="100" height="100" viewBox="0 0 100 100" fill="none" xmlns="http://www.w3.org/2000/svg">
<path fill-rule="evenodd" clip-rule="evenodd" d="M95 50C95 74.8528 74.8528 95 50 95C25.1472 95 5 74.8528 5 50C5 48.1708 5.10914 46.3671 5.32127 44.595L18 61.5C18.4721 62.1295 19.2131 62.5 20 62.5C20.7869 62.5 21.5279 62.1295 22 61.5L35 44.1667L48 61.5C48.4721 62.1295 49.2131 62.5 50 62.5C50.7869 62.5 51.5279 62.1295 52 61.5L65 44.1667L78 61.5C78.4721 62.1295 79.2131 62.5 80 62.5C80.7869 62.5 81.5279 62.1295 82 61.5L94.6787 44.595C94.8909 46.3671 95 48.1708 95 50ZM93.4031 38.0757C93.2557 38.1983 93.1201 38.3399 93 38.5L80 55.8333L67 38.5C66.5279 37.8705 65.7869 37.5 65 37.5C64.2131 37.5 63.4721 37.8705 63 38.5L50 55.8333L37 38.5C36.5279 37.8705 35.7869 37.5 35 37.5C34.2131 37.5 33.4721 37.8705 33 38.5L20 55.8333L7 38.5C6.87992 38.3399 6.74433 38.1983 6.59687 38.0757C11.8229 19.01 29.2754 5 50 5C70.7246 5 88.1771 19.01 93.4031 38.0757ZM100 50C100 77.6142 77.6142 100 50 100C22.3858 100 0 77.6142 0 50C0 22.3858 22.3858 0 50 0C77.6142 0 100 22.3858 100 50Z" fill="#F4D58D"/>
</svg>
