<svg width="101" height="60" viewBox="0 0 101 60" fill="none" xmlns="http://www.w3.org/2000/svg">
<path fill-rule="evenodd" clip-rule="evenodd" d="M19.3873 38.0079C19.2557 38.6618 18.8682 39.236 18.311 39.6027C17.7539 39.9694 17.0733 40.0983 16.4206 39.9606L2.92524 37.1144C1.58299 36.8314 0.71956 35.5196 0.990332 34.1748C3.31963 22.6063 9.40146 12.1716 18.2623 4.56887C23.5419 0.0388743 29.5806 1.11556 34.841 2.69721C36.0532 3.06168 37.2798 3.47139 38.4768 3.8712L38.4769 3.87124L38.8437 3.9937C40.1718 4.43683 41.4696 4.86486 42.7669 5.23857C45.3701 5.98848 47.8313 6.47622 50.2061 6.40857C52.581 6.34092 55.0122 5.71376 57.571 4.8167C58.8461 4.36967 60.1188 3.86838 61.4208 3.35033L61.7805 3.20709C62.9539 2.73977 64.1562 2.26093 65.3466 1.82806C70.5104 -0.0497068 76.4828 -1.47024 82.0039 2.7548C91.2661 9.84283 97.9065 19.9169 100.861 31.3359C101.204 32.6618 100.417 34.0169 99.0949 34.3751L85.7751 37.9852C85.1303 38.1599 84.4425 38.0693 83.8649 37.7337C83.2874 37.398 82.8682 36.8452 82.7008 36.1985C80.8171 28.9185 76.5885 22.515 70.7139 18.0194C64.8405 13.5247 57.664 11.1982 50.3485 11.4065C43.0328 11.6149 35.9924 14.3466 30.3706 19.1702C24.7476 23.9948 20.8727 30.6309 19.3873 38.0079ZM27.1147 15.3755C30.3338 12.6134 33.9611 10.4427 37.835 8.92768C37.6425 8.86381 37.4512 8.80007 37.2611 8.73665L36.9011 8.61644L36.901 8.61642C35.691 8.21231 34.5368 7.82686 33.4013 7.48546C28.3259 5.95942 24.6705 5.65876 21.5182 8.36351C14.1344 14.6989 8.87187 23.226 6.44285 32.7463L15.0634 34.5644C17.0775 27.0928 21.2679 20.3922 27.1147 15.3755ZM63.2693 7.99607C63.0812 8.0709 62.8919 8.14613 62.7015 8.22154C66.6503 9.51395 70.3889 11.4746 73.7525 14.0487C79.8628 18.7246 84.4109 25.1754 86.8288 32.5192L95.3406 30.2123C92.3986 20.8444 86.6812 12.6303 78.9652 6.72553C75.6742 4.20702 72.0424 4.71354 67.0553 6.52703C65.9401 6.93254 64.8087 7.38311 63.6226 7.85544L63.6223 7.85553L63.2693 7.99607ZM30.8417 46.0287C30.0256 44.915 28.4612 44.6738 27.3475 45.4899C26.2338 46.3061 25.9926 47.8705 26.8087 48.9842L34.131 58.9762C34.6019 59.6187 35.3509 59.9984 36.1475 59.9984C36.9442 59.9984 37.6931 59.6187 38.164 58.9762L43.4699 51.7359L48.7757 58.9762C49.2466 59.6187 49.9955 59.9984 50.7922 59.9984C51.5888 59.9984 52.3378 59.6187 52.8087 58.9762L58.1145 51.7359L63.4203 58.9762C63.8912 59.6187 64.6402 59.9984 65.4368 59.9984C66.2335 59.9984 66.9824 59.6187 67.4533 58.9762L74.7756 48.9842C75.5918 47.8705 75.3506 46.3061 74.2369 45.4899C73.1232 44.6738 71.5588 44.915 70.7426 46.0287L65.4368 53.269L60.131 46.0287C59.6601 45.3861 58.9112 45.0064 58.1145 45.0064C57.3178 45.0064 56.5689 45.3861 56.098 46.0287L50.7922 53.269L45.4864 46.0287C45.0155 45.3861 44.2665 45.0064 43.4699 45.0064C42.6732 45.0064 41.9242 45.3861 41.4533 46.0287L36.1475 53.269L30.8417 46.0287Z" fill="#F4D58D"/>
</svg>
