<svg width="249" height="98" viewBox="0 0 249 98" fill="none" xmlns="http://www.w3.org/2000/svg">
<g filter="url(#filter0_d_430_38)">
<path d="M66.0039 51.0693C61.5693 44.0557 58.0439 36.6152 55.4463 28.7295C54.5928 26.6328 53.2197 25.6123 51.3643 25.668C49.4902 25.7422 48.0986 26.7627 47.1709 28.7295L42.3467 41.124C39.5078 37.4316 36.6318 33.7764 33.7188 30.1396C32.6426 29.0078 31.3066 28.6367 29.7295 29.0264C28.7832 29.1934 27.9668 29.6201 27.2803 30.2881C26.6123 30.9746 26.2227 31.9023 26.1299 33.0898C25.7217 42.0518 25.9443 51.0137 26.8164 59.957C26.9463 61.1445 27.373 62.165 28.1152 63C28.8574 63.835 29.8594 64.2432 31.1025 64.2432C32.2344 64.2432 33.2363 63.835 34.1084 63C34.9805 62.165 35.4072 61.1631 35.4072 59.957C35.3887 59.7715 35.3887 59.6045 35.3701 59.4189C35.3516 59.085 35.333 58.7324 35.3145 58.3799C35.2959 58.0459 35.2588 57.7305 35.1846 57.4521C34.832 53.2773 34.6279 49.1211 34.5537 44.9648C36.335 47.2656 38.1162 49.585 39.8604 51.9229C41.1035 53.4443 42.5322 54.1123 44.1279 53.9268C45.7051 53.7227 46.9111 52.7207 47.709 50.9023C48.8965 47.8223 50.1025 44.7607 51.29 41.6807C53.3867 46.4307 55.8359 51.0137 58.6006 55.4111C59.6582 56.9141 60.957 57.582 62.4785 57.3965C64 57.2295 65.1875 56.543 66.0596 55.3184C66.9131 54.1123 66.8945 52.7021 66.0039 51.0693ZM80.7178 31.4385C79.6045 31.1602 78.5098 31.29 77.4521 31.8467C76.3945 32.4033 75.7266 33.2568 75.4482 34.4258C75.1699 35.8359 74.8916 37.2646 74.6133 38.6748C73.1846 45.8369 71.7744 52.999 70.3643 60.1611C70.1416 61.3301 70.29 62.4248 70.791 63.4082C71.3105 64.3916 72.1641 65.0596 73.3516 65.4307C74.4834 65.709 75.5781 65.5605 76.6172 65.0039C77.6748 64.4658 78.3428 63.5938 78.6396 62.4248C79.1963 59.5674 79.7715 56.71 80.3281 53.8525C81.46 48.1377 82.5918 42.4229 83.7236 36.708C83.9463 35.5205 83.7979 34.4443 83.2783 33.4609C82.7588 32.4775 81.9053 31.791 80.7178 31.4385ZM118.551 32.4033C118.421 30.5664 117.679 29.3418 116.306 28.7295C114.914 28.1172 113.541 28.1172 112.168 28.7295C110.795 29.3418 110.053 30.5664 109.96 32.4033C109.979 35.4092 109.979 38.415 109.997 41.4209C109.997 42.7012 109.997 43.9814 110.016 45.2617C105.024 40.2148 99.5508 35.7803 93.5576 31.9395C92.5 31.3271 91.5166 31.123 90.5889 31.3643C90.4219 31.3828 90.2734 31.4199 90.125 31.457C88.9004 31.8281 88.0469 32.4961 87.583 33.4795C87.1006 34.4629 86.9521 35.5391 87.1191 36.7266C88.3252 45.6885 90.292 54.4834 92.9824 63.1113C93.6318 64.8369 94.7266 65.8018 96.2295 66.0244C97.751 66.2471 99.0684 65.8945 100.219 64.9297C101.369 63.9834 101.722 62.6104 101.258 60.8291C99.6436 55.6709 98.3076 50.457 97.2314 45.1875C102.241 49.4736 106.936 54.0938 111.314 59.0664C112.725 60.4023 114.283 60.6992 115.935 59.957C117.586 59.2148 118.495 57.916 118.625 56.0234C118.606 48.1562 118.588 40.2891 118.551 32.4033ZM137.347 56.4688C136.271 56.4316 135.213 56.4131 134.137 56.376C133.061 56.3574 132.003 56.3203 130.927 56.3018C131.558 48.7314 132.318 41.1797 133.246 33.6465C133.32 32.4404 132.894 31.4199 131.947 30.6035C131.02 29.7686 130.018 29.3418 128.941 29.3418C127.68 29.3418 126.678 29.7686 125.954 30.6035C125.23 31.4385 124.804 32.4404 124.655 33.6465C123.579 42.5713 122.688 51.5146 122.021 60.4766C121.965 61.7012 122.392 62.7031 123.264 63.501C124.136 64.2803 125.156 64.707 126.307 64.7627L137.347 65.041C139.184 64.9854 140.427 64.2803 141.039 62.9072C141.651 61.5527 141.651 60.1611 141.021 58.7695C140.408 57.3779 139.184 56.6172 137.347 56.4688ZM155.419 31.4385C154.306 31.1602 153.211 31.29 152.153 31.8467C151.096 32.4033 150.428 33.2568 150.149 34.4258C149.871 35.8359 149.593 37.2646 149.314 38.6748C147.886 45.8369 146.476 52.999 145.065 60.1611C144.843 61.3301 144.991 62.4248 145.492 63.4082C146.012 64.3916 146.865 65.0596 148.053 65.4307C149.185 65.709 150.279 65.5605 151.318 65.0039C152.376 64.4658 153.044 63.5938 153.341 62.4248C153.897 59.5674 154.473 56.71 155.029 53.8525C156.161 48.1377 157.293 42.4229 158.425 36.708C158.647 35.5205 158.499 34.4443 157.979 33.4609C157.46 32.4775 156.606 31.791 155.419 31.4385ZM172.916 47.5254C174.438 46.7461 176.237 46.3564 178.315 46.3193C180.394 46.2822 182.175 46.6904 183.678 47.4883C185.329 48.3418 186.776 48.3232 188.001 47.4326C189.226 46.5605 189.912 45.373 190.079 43.8701C190.246 42.3672 189.56 41.1055 188.02 40.085C185.051 38.4521 181.841 37.6914 178.334 37.8213C174.827 37.9326 171.58 38.6934 168.593 40.1221C165.513 41.6621 163.305 43.8887 161.932 46.8018C160.577 49.6963 159.891 52.7949 159.835 56.1162C159.779 59.6045 160.559 62.7588 162.191 65.542C163.843 68.3252 166.311 70.3477 169.632 71.5908C172.471 72.5557 175.569 72.7412 178.928 72.166C182.286 71.6094 184.995 70.2178 187.073 67.9912C188.187 66.5254 188.465 65.0781 187.89 63.6309C187.314 62.1836 186.35 61.2188 184.977 60.6992C183.604 60.1982 182.286 60.5879 181.006 61.9238C179.985 62.9814 178.687 63.5938 177.091 63.7422C175.514 63.8906 174.011 63.8164 172.638 63.501C170.801 63.0186 169.613 61.9609 169.094 60.3281C168.574 58.6768 168.352 57.0068 168.444 55.3184C168.426 51.8115 169.91 49.2139 172.916 47.5254ZM222.81 37.209C222.142 36.1328 221.27 35.4834 220.193 35.2607C219.136 35.0381 218.041 35.168 216.946 35.6689C215.425 36.3369 213.885 36.9863 212.289 37.6172C209.617 38.6748 206.982 39.8438 204.422 41.1055C204.719 39.1572 204.904 37.2275 204.96 35.2607C204.886 33.4238 204.162 32.1992 202.789 31.5869C201.435 30.9746 200.043 30.9746 198.67 31.5869C197.278 32.1992 196.518 33.4238 196.369 35.2607C196.239 38.3037 195.85 41.3281 195.2 44.334C195.015 45.2803 194.848 46.2451 194.681 47.1914C194.458 48.5459 194.235 49.9004 193.994 51.2549C193.549 53.9824 193.085 56.6914 192.64 59.4004C192.436 60.5879 192.584 61.6641 193.066 62.6475C193.567 63.6309 194.421 64.3174 195.627 64.6885C196.74 64.9482 197.816 64.8184 198.893 64.2617C199.969 63.7051 200.637 62.8516 200.896 61.6826L202.047 54.9473C205.498 58.751 209.042 62.499 212.66 66.1729C214.033 67.416 215.406 67.7686 216.816 67.2305C218.227 66.6924 219.191 65.709 219.748 64.2988C220.286 62.8887 219.934 61.4971 218.728 60.1055C215.091 56.4131 211.547 52.6465 208.059 48.8242C208.894 48.4531 209.71 48.1191 210.545 47.7852C211.287 47.5068 212.011 47.1914 212.697 46.8945C215.555 45.6143 218.412 44.3525 221.27 43.0723C222.346 42.5342 222.995 41.6621 223.255 40.4746C223.496 39.2871 223.366 38.1924 222.81 37.209Z" fill="#F4D58D"/>
</g>
<defs>
<filter id="filter0_d_430_38" x="0.72168" y="0.612305" width="247.774" height="97.1289" filterUnits="userSpaceOnUse" color-interpolation-filters="sRGB">
<feFlood flood-opacity="0" result="BackgroundImageFix"/>
<feColorMatrix in="SourceAlpha" type="matrix" values="0 0 0 0 0 0 0 0 0 0 0 0 0 0 0 0 0 0 127 0" result="hardAlpha"/>
<feOffset/>
<feGaussianBlur stdDeviation="12.5"/>
<feComposite in2="hardAlpha" operator="out"/>
<feColorMatrix type="matrix" values="0 0 0 0 0.956863 0 0 0 0 0.835294 0 0 0 0 0.552941 0 0 0 0.25 0"/>
<feBlend mode="normal" in2="BackgroundImageFix" result="effect1_dropShadow_430_38"/>
<feBlend mode="normal" in="SourceGraphic" in2="effect1_dropShadow_430_38" result="shape"/>
</filter>
</defs>
</svg>
